{"metadata": {"schema_version": "0.2", "title": "[Audiveris detected movement]", "source_filename": "all-hail-the-power-piano.mxl", "source_format": "musicxml"}, "resolution": 2, "tempos": [{"time": 0, "qpm": 120.0}], "key_signatures": [{"time": 0, "fifths": 1}], "time_signatures": [{"time": 0, "numerator": 4, "denominator": 4}], "barlines": [{"time": 0}, {"time": 2}, {"time": 10}, {"time": 18}, {"time": 26}, {"time": 34}, {"time": 42}, {"time": 42}, {"time": 50}, {"time": 58}, {"time": 66}, {"time": 74}, {"time": 74}, {"time": 82}, {"time": 90}], "beats": [{"time": 0}, {"time": 2}, {"time": 4}, {"time": 6}, {"time": 8}, {"time": 10}, {"time": 12}, {"time": 14}, {"time": 16}, {"time": 18}, {"time": 20}, {"time": 22}, {"time": 24}, {"time": 26}, {"time": 28}, {"time": 30}, {"time": 32}, {"time": 34}, {"time": 36}, {"time": 38}, {"time": 40}, {"time": 42}, {"time": 44}, {"time": 46}, {"time": 48}, {"time": 50}, {"time": 52}, {"time": 54}, {"time": 56}, {"time": 58}, {"time": 60}, {"time": 62}, {"time": 64}, {"time": 66}, {"time": 68}, {"time": 70}, {"time": 72}, {"time": 74}, {"time": 76}, {"time": 78}, {"time": 80}, {"time": 82}, {"time": 84}, {"time": 86}, {"time": 88}, {"time": 90}, {"time": 92}, {"time": 94}, {"time": 96}], "tracks": [{"program": 1, "is_drum": false, "name": "Acoustic Grand Piano", "notes": [{"time": 0, "pitch": 62, "duration": 2, "velocity": 100, "pitch_str": "D4"}, {"time": 2, "pitch": 59, "duration": 4, "velocity": 100, "pitch_str": "B3"}, {"time": 2, "pitch": 67, "duration": 2, "velocity": 100, "pitch_str": "G4"}, {"time": 4, "pitch": 67, "duration": 2, "velocity": 100, "pitch_str": "G4"}, {"time": 6, "pitch": 55, "duration": 4, "velocity": 100, "pitch_str": "G3"}, {"time": 6, "pitch": 71, "duration": 2, "velocity": 100, "pitch_str": "B4"}, {"time": 8, "pitch": 71, "duration": 2, "velocity": 100, "pitch_str": "B4"}, {"time": 10, "pitch": 54, "duration": 2, "velocity": 100, "pitch_str": "F#3"}, {"time": 10, "pitch": 69, "duration": 2, "velocity": 100, "pitch_str": "A4"}, {"time": 12, "pitch": 52, "duration": 2, "velocity": 100, "pitch_str": "E3"}, {"time": 12, "pitch": 67, "duration": 2, "velocity": 100, "pitch_str": "G4"}, {"time": 14, "pitch": 54, "duration": 2, "velocity": 100, "pitch_str": "F#3"}, {"time": 14, "pitch": 69, "duration": 2, "velocity": 100, "pitch_str": "A4"}, {"time": 16, "pitch": 55, "duration": 2, "velocity": 100, "pitch_str": "G3"}, {"time": 16, "pitch": 71, "duration": 2, "velocity": 100, "pitch_str": "B4"}, {"time": 18, "pitch": 50, "duration": 6, "velocity": 100, "pitch_str": "D3"}, {"time": 18, "pitch": 69, "duration": 2, "velocity": 100, "pitch_str": "A4"}, {"time": 20, "pitch": 67, "duration": 2, "velocity": 100, "pitch_str": "G4"}, {"time": 22, "pitch": 71, "duration": 2, "velocity": 100, "pitch_str": "B4"}, {"time": 24, "pitch": 50, "duration": 2, "velocity": 100, "pitch_str": "D3"}, {"time": 24, "pitch": 66, "duration": 2, "velocity": 100, "pitch_str": "F#4"}, {"time": 24, "pitch": 69, "duration": 2, "velocity": 100, "pitch_str": "A4"}, {"time": 26, "pitch": 55, "duration": 6, "velocity": 100, "pitch_str": "G3"}, {"time": 26, "pitch": 59, "duration": 6, "velocity": 100, "pitch_str": "B3"}, {"time": 26, "pitch": 67, "duration": 6, "velocity": 100, "pitch_str": "G4"}, {"time": 32, "pitch": 69, "duration": 2, "velocity": 100, "pitch_str": "A4"}, {"time": 34, "pitch": 55, "duration": 4, "velocity": 100, "pitch_str": "G3"}, {"time": 34, "pitch": 71, "duration": 2, "velocity": 100, "pitch_str": "B4"}, {"time": 36, "pitch": 69, "duration": 2, "velocity": 100, "pitch_str": "A4"}, {"time": 38, "pitch": 59, "duration": 4, "velocity": 100, "pitch_str": "B3"}, {"time": 38, "pitch": 67, "duration": 2, "velocity": 100, "pitch_str": "G4"}, {"time": 40, "pitch": 71, "duration": 2, "velocity": 100, "pitch_str": "B4"}, {"time": 42, "pitch": 55, "duration": 4, "velocity": 100, "pitch_str": "G3"}, {"time": 42, "pitch": 59, "duration": 6, "velocity": 100, "pitch_str": "B3"}, {"time": 42, "pitch": 71, "duration": 4, "velocity": 100, "pitch_str": "B4"}, {"time": 42, "pitch": 74, "duration": 2, "velocity": 100, "pitch_str": "D5"}, {"time": 42, "pitch": 74, "duration": 4, "velocity": 100, "pitch_str": "D5"}, {"time": 44, "pitch": 72, "duration": 2, "velocity": 100, "pitch_str": "C5"}, {"time": 46, "pitch": 54, "duration": 4, "velocity": 100, "pitch_str": "F#3"}, {"time": 46, "pitch": 69, "duration": 4, "velocity": 100, "pitch_str": "A4"}, {"time": 46, "pitch": 71, "duration": 2, "velocity": 100, "pitch_str": "B4"}, {"time": 46, "pitch": 74, "duration": 4, "velocity": 100, "pitch_str": "D5"}, {"time": 48, "pitch": 54, "duration": 2, "velocity": 100, "pitch_str": "F#3"}, {"time": 48, "pitch": 69, "duration": 2, "velocity": 100, "pitch_str": "A4"}, {"time": 50, "pitch": 52, "duration": 4, "velocity": 100, "pitch_str": "E3"}, {"time": 50, "pitch": 67, "duration": 4, "velocity": 100, "pitch_str": "G4"}, {"time": 50, "pitch": 76, "duration": 4, "velocity": 100, "pitch_str": "E5"}, {"time": 54, "pitch": 57, "duration": 4, "velocity": 100, "pitch_str": "A3"}, {"time": 54, "pitch": 67, "duration": 4, "velocity": 100, "pitch_str": "G4"}, {"time": 54, "pitch": 74, "duration": 2, "velocity": 100, "pitch_str": "D5"}, {"time": 56, "pitch": 73, "duration": 2, "velocity": 100, "pitch_str": "C#5"}, {"time": 58, "pitch": 50, "duration": 6, "velocity": 100, "pitch_str": "D3"}, {"time": 58, "pitch": 66, "duration": 6, "velocity": 100, "pitch_str": "F#4"}, {"time": 58, "pitch": 74, "duration": 6, "velocity": 100, "pitch_str": "D5"}, {"time": 64, "pitch": 71, "duration": 2, "velocity": 100, "pitch_str": "B4"}, {"time": 66, "pitch": 59, "duration": 4, "velocity": 100, "pitch_str": "B3"}, {"time": 66, "pitch": 74, "duration": 2, "velocity": 100, "pitch_str": "D5"}, {"time": 68, "pitch": 71, "duration": 2, "velocity": 100, "pitch_str": "B4"}, {"time": 70, "pitch": 55, "duration": 4, "velocity": 100, "pitch_str": "G3"}, {"time": 70, "pitch": 67, "duration": 2, "velocity": 100, "pitch_str": "G4"}, {"time": 72, "pitch": 71, "duration": 2, "velocity": 100, "pitch_str": "B4"}, {"time": 74, "pitch": 59, "duration": 4, "velocity": 100, "pitch_str": "B3"}, {"time": 74, "pitch": 62, "duration": 6, "velocity": 100, "pitch_str": "D4"}, {"time": 74, "pitch": 67, "duration": 4, "velocity": 100, "pitch_str": "G4"}, {"time": 74, "pitch": 69, "duration": 2, "velocity": 100, "pitch_str": "A4"}, {"time": 74, "pitch": 74, "duration": 4, "velocity": 100, "pitch_str": "D5"}, {"time": 76, "pitch": 67, "duration": 2, "velocity": 100, "pitch_str": "G4"}, {"time": 78, "pitch": 60, "duration": 4, "velocity": 100, "pitch_str": "C4"}, {"time": 78, "pitch": 64, "duration": 4, "velocity": 100, "pitch_str": "E4"}, {"time": 78, "pitch": 69, "duration": 2, "velocity": 100, "pitch_str": "A4"}, {"time": 78, "pitch": 72, "duration": 4, "velocity": 100, "pitch_str": "C5"}, {"time": 80, "pitch": 59, "duration": 2, "velocity": 100, "pitch_str": "B3"}, {"time": 80, "pitch": 71, "duration": 2, "velocity": 100, "pitch_str": "B4"}, {"time": 82, "pitch": 62, "duration": 6, "velocity": 100, "pitch_str": "D4"}, {"time": 82, "pitch": 71, "duration": 3, "velocity": 100, "pitch_str": "B4"}, {"time": 85, "pitch": 72, "duration": 1, "velocity": 100, "pitch_str": "C5"}, {"time": 86, "pitch": 69, "duration": 2, "velocity": 100, "pitch_str": "A4"}, {"time": 88, "pitch": 50, "duration": 2, "velocity": 100, "pitch_str": "D3"}, {"time": 88, "pitch": 66, "duration": 2, "velocity": 100, "pitch_str": "F#4"}, {"time": 88, "pitch": 69, "duration": 2, "velocity": 100, "pitch_str": "A4"}, {"time": 90, "pitch": 55, "duration": 6, "velocity": 100, "pitch_str": "G3"}, {"time": 90, "pitch": 59, "duration": 6, "velocity": 100, "pitch_str": "B3"}, {"time": 90, "pitch": 67, "duration": 6, "velocity": 100, "pitch_str": "G4"}]}]}